<svg id="eYRKWqxTDw71" xmlns="http://www.w3.org/2000/svg" xmlns:xlink="http://www.w3.org/1999/xlink" viewBox="0 0 1200 1200" shape-rendering="geometricPrecision" text-rendering="geometricPrecision" project-id="d1bd7e25056a41aea665bd612b1d5a4f" export-id="12ed542e71fc42cb87c30d39b560454d" cached="false"><defs><linearGradient id="eYRKWqxTDw74-fill" x1="71.24" y1="262.04" x2="115.83" y2="259.62" spreadMethod="pad" gradientUnits="userSpaceOnUse" gradientTransform="translate(0 0)"><stop id="eYRKWqxTDw74-fill-0" offset="0%" stop-color="#ffddb2"/><stop id="eYRKWqxTDw74-fill-1" offset="51%" stop-color="#ffd199"/><stop id="eYRKWqxTDw74-fill-2" offset="100%" stop-color="#ffc47d"/></linearGradient><linearGradient id="eYRKWqxTDw75-fill" x1="126.81" y1="272.35" x2="224.94" y2="267.02" spreadMethod="pad" gradientUnits="userSpaceOnUse" gradientTransform="translate(0 0)"><stop id="eYRKWqxTDw75-fill-0" offset="0%" stop-color="#ffddb2"/><stop id="eYRKWqxTDw75-fill-1" offset="51%" stop-color="#ffd199"/><stop id="eYRKWqxTDw75-fill-2" offset="100%" stop-color="#ffc47d"/></linearGradient><linearGradient id="eYRKWqxTDw79-fill" x1="89.35" y1="348.19" x2="228.36" y2="340.65" spreadMethod="pad" gradientUnits="userSpaceOnUse" gradientTransform="translate(0 0)"><stop id="eYRKWqxTDw79-fill-0" offset="1%" stop-color="#ffd199"/><stop id="eYRKWqxTDw79-fill-1" offset="100%" stop-color="#f0b267"/></linearGradient></defs><g transform="matrix(3.895387 0 0 4.591539-242.280984-574.285021)"><g><path d="M147,308.56h-29.94c-27.195746-.027551-49.236929-22.06426-49.27-49.26v-19.53c.005501-16.427527,13.312487-29.747936,29.74-29.77h49.47v21h-49.47c-4.824684.005511-8.734489,3.915316-8.74,8.74v19.56c.016535,15.606236,12.663764,28.253465,28.27,28.27h29.94Z" fill="url(#eYRKWqxTDw74-fill)"/><path d="M119.4,205.23v65.34c.13178,43.404585,35.285415,78.55822,78.69,78.69h19.32c43.404585-.13178,78.55822-35.285415,78.69-78.69v-65.34c0-4.039247-1.604585-7.913057-4.460764-10.769236s-6.729989-4.460764-10.769236-4.460764h-146.24c-8.411297,0-15.23,6.818703-15.23,15.23Z" fill="url(#eYRKWqxTDw75-fill)"/></g><path d="M222.66,59c0,18.83-15.82,18.83-15.82,37.66s15.82,18.83,15.82,37.67-15.82,18.84-15.82,37.67" fill="none" stroke="#ffe4c2" stroke-width="10" stroke-linecap="round" stroke-miterlimit="10"/><path d="M263.84,83c0,14.83-12.46,14.83-12.46,29.66s12.46,14.83,12.46,29.67-12.46,14.84-12.46,29.67" fill="none" stroke="#ffe4c2" stroke-width="10" stroke-linecap="round" stroke-miterlimit="10"/><path d="M170.94,83c0,14.83-12.46,14.83-12.46,29.66s12.46,14.83,12.46,29.67-12.46,14.84-12.46,29.67" fill="none" stroke="#ffe4c2" stroke-width="10" stroke-linecap="round" stroke-miterlimit="10"/><path d="M333.5,332.77c-.010995-4.579401-3.720599-8.289005-8.3-8.3h-238.9c-3.821059-.007265-7.152115,2.598139-8.065457,6.308442s.827653,7.564263,4.215457,9.331558c22.47144,14.930079,48.850881,22.892962,75.83,22.89h94.94c26.962089-.006881,53.322745-7.969344,75.78-22.89c2.747721-1.42003,4.480932-4.24709,4.5-7.34Z" fill="url(#eYRKWqxTDw79-fill)"/></g><g transform="matrix(1.386857 0 0 1.40675 282.986828 335.985066)"><g transform="translate(.000017 0)"><path d="M200,54c-44.33.18-76.31,34.11-12,113.35c3.37,4.16,8.53,5,12,5s8.64-.87,12-5C276.31,88.11,244.33,54.18,200,54Z" fill="#aee1ea"/><path d="M73.56,127c-22,38.48-8.62,83.15,92.16,67.08c5.29-.84,8.59-4.89,10.36-7.89s3.57-7.92,1.65-12.92C141.26,78,95.88,88.7,73.56,127Z" fill="#aee1ea"/><path d="M73.56,273c22.32,38.3,67.7,49,104.18-46.27c1.91-5,.06-9.89-1.65-12.92s-5.08-7-10.36-7.89C64.94,189.85,51.55,234.52,73.56,273Z" fill="#aee1ea"/><path d="M200,346c44.33-.18,76.31-34.11,12-113.35-3.37-4.16-8.53-5-12-5s-8.64.87-12,5C123.69,311.89,155.67,345.82,200,346Z" fill="#aee1ea"/><path d="M326.44,273c22-38.48,8.62-83.15-92.16-67.08-5.29.84-8.59,4.89-10.36,7.89s-3.57,7.92-1.65,12.92C258.74,322,304.12,311.3,326.44,273Z" fill="#aee1ea"/><path d="M326.44,127c-22.32-38.3-67.7-49-104.18,46.27-1.91,5-.06,9.89,1.65,12.92s5.08,7,10.36,7.89c100.79,16.07,114.18-28.6,92.17-67.08Z" fill="#aee1ea"/></g><g><circle r="54.73" transform="translate(200 200)" fill="#f7a94d"/><circle r="34.2" transform="translate(200 200)" fill="#f7d185"/></g></g></svg>
